<?xml version="1.0" encoding="UTF-8" standalone="no"?>
<!DOCTYPE svg PUBLIC "-//W3C//DTD SVG 1.1//EN" "http://www.w3.org/Graphics/SVG/1.1/DTD/svg11.dtd">
<svg width="100%" height="100%" viewBox="0 0 1024 1024" version="1.1" xmlns="http://www.w3.org/2000/svg" xmlns:xlink="http://www.w3.org/1999/xlink" xml:space="preserve" xmlns:serif="http://www.serif.com/" style="fill-rule:evenodd;clip-rule:evenodd;stroke-linejoin:round;stroke-miterlimit:2;">
    <g id="Background">
        <path d="M983.766,312.727C957.981,251.755 921.072,196.999 874.061,149.983C827.05,102.966 772.299,66.049 711.329,40.257C648.194,13.548 581.14,0.004 512,0C442.896,0 375.845,13.54 312.711,40.243C251.742,66.03 196.99,102.942 149.976,149.953C102.962,196.964 66.047,251.714 40.256,312.681C13.548,375.814 0.004,442.865 0,511.97C-0.004,581.079 13.533,648.135 40.234,711.274C66.019,772.247 102.93,827.002 149.941,874.017C196.952,921.035 251.703,957.952 312.673,983.744C375.809,1010.45 442.863,1024 511.996,1024L512.005,1024C581.109,1024 648.158,1010.46 711.293,983.758C772.262,957.971 827.013,921.059 874.026,874.049C921.039,827.039 957.955,772.289 983.746,711.321C1010.45,648.187 1024,581.135 1024,512.031C1024,442.921 1010.47,375.866 983.766,312.727ZM512.004,976.328L511.974,976.328C387.948,976.321 271.347,928.015 183.651,840.309C95.957,752.604 47.665,635.999 47.672,511.973C47.687,255.957 255.984,47.673 512.028,47.673C636.054,47.68 752.654,95.985 840.348,183.69C928.043,271.396 976.334,388.001 976.327,512.027C976.313,768.043 768.018,976.328 512.004,976.328Z" style="fill:white;fill-rule:nonzero;"/>
    </g>
    <g id="Facebook">
        <path id="Facebook_1_" d="M672.75,305.64L672.75,203.89C669.014,203.89 665.277,203.883 661.541,203.891C652.545,203.911 643.548,203.869 634.551,203.892C623.579,203.92 612.609,203.846 601.636,203.893C591.969,203.935 582.299,203.796 572.633,203.896C558.041,204.047 544.19,204.764 530.195,209.271C516.702,213.617 504.037,221.226 493.247,230.352C486.999,235.636 481.216,241.295 475.978,247.586C473.857,250.199 471.881,252.916 470.036,255.726C464.498,264.157 460.123,273.43 456.469,283.261C455.648,285.474 454.841,287.693 454.072,289.923C448.438,306.247 448.252,324.066 448.252,341.22L448.252,427.14L351.252,427.14L351.252,539.14L447.252,539.14L447.252,820.14L558.252,820.14L558.252,536.64L659,537.999L672.583,427.874L558.75,427.64L558.75,342.64C558.75,342.64 558.5,306.39 589.25,305.89L672.75,305.64Z" style="fill:white;fill-rule:nonzero;"/>
    </g>
</svg>
