<?xml version="1.0" encoding="UTF-8" standalone="no"?>
<!DOCTYPE svg PUBLIC "-//W3C//DTD SVG 1.1//EN" "http://www.w3.org/Graphics/SVG/1.1/DTD/svg11.dtd">
<svg width="100%" height="100%" viewBox="0 0 1024 1024" version="1.1" xmlns="http://www.w3.org/2000/svg" xmlns:xlink="http://www.w3.org/1999/xlink" xml:space="preserve" xmlns:serif="http://www.serif.com/" style="fill-rule:evenodd;clip-rule:evenodd;stroke-linejoin:round;stroke-miterlimit:2;">
    <g id="Background">
        <path d="M983.766,312.727C957.981,251.755 921.072,196.999 874.061,149.983C827.05,102.966 772.299,66.049 711.329,40.257C648.194,13.548 581.14,0.004 512,0C442.896,0 375.845,13.54 312.711,40.243C251.742,66.03 196.99,102.942 149.976,149.953C102.962,196.964 66.047,251.714 40.256,312.681C13.548,375.814 0.004,442.865 0,511.97C-0.004,581.079 13.533,648.135 40.234,711.274C66.019,772.247 102.93,827.002 149.941,874.017C196.952,921.035 251.703,957.952 312.673,983.744C375.809,1010.45 442.863,1024 511.996,1024L512.005,1024C581.109,1024 648.158,1010.46 711.293,983.758C772.262,957.971 827.013,921.059 874.026,874.049C921.039,827.039 957.955,772.289 983.746,711.321C1010.45,648.187 1024,581.135 1024,512.031C1024,442.921 1010.47,375.866 983.766,312.727ZM512.004,976.328L511.974,976.328C387.948,976.321 271.347,928.015 183.651,840.309C95.957,752.604 47.665,635.999 47.672,511.973C47.687,255.957 255.984,47.673 512.028,47.673C636.054,47.68 752.654,95.985 840.348,183.69C928.043,271.396 976.334,388.001 976.327,512.027C976.313,768.043 768.018,976.328 512.004,976.328Z" style="fill:white;fill-rule:nonzero;"/>
    </g>
    <g id="Instagram">
        <circle cx="658.765" cy="364.563" r="33.136" style="fill:white;"/>
        <path d="M512,655.912C432.646,655.912 368.088,591.352 368.088,512C368.088,432.646 432.647,368.088 512,368.088C591.353,368.088 655.913,432.647 655.913,512C655.913,591.354 591.354,655.912 512,655.912ZM512,413.088C457.46,413.088 413.088,457.46 413.088,512C413.088,566.54 457.46,610.912 512,610.912C566.541,610.912 610.913,566.54 610.913,512C610.913,457.46 566.541,413.088 512,413.088Z" style="fill:white;fill-rule:nonzero;"/>
        <path d="M603.643,800.006L420.358,800.006C316.969,800.006 232.858,715.894 232.858,612.506L232.858,411.495C232.858,308.107 316.97,223.995 420.358,223.995L603.641,223.995C707.03,223.995 791.141,308.107 791.141,411.495L791.141,612.506C791.143,715.894 707.03,800.006 603.643,800.006ZM420.358,268.995C341.783,268.995 277.858,332.92 277.858,411.495L277.858,612.506C277.858,691.081 341.783,755.006 420.358,755.006L603.641,755.006C682.216,755.006 746.141,691.081 746.141,612.506L746.141,411.495C746.141,332.92 682.216,268.995 603.641,268.995L420.358,268.995Z" style="fill:white;fill-rule:nonzero;"/>
    </g>
</svg>
