<?xml version="1.0" encoding="UTF-8" standalone="no"?>
<!DOCTYPE svg PUBLIC "-//W3C//DTD SVG 1.1//EN" "http://www.w3.org/Graphics/SVG/1.1/DTD/svg11.dtd">
<svg width="100%" height="100%" viewBox="0 0 1024 1024" version="1.1" xmlns="http://www.w3.org/2000/svg" xmlns:xlink="http://www.w3.org/1999/xlink" xml:space="preserve" xmlns:serif="http://www.serif.com/" style="fill-rule:evenodd;clip-rule:evenodd;stroke-linejoin:round;stroke-miterlimit:2;">
    <g id="Background">
        <path d="M983.766,312.727C957.981,251.755 921.072,196.999 874.061,149.983C827.05,102.966 772.299,66.049 711.329,40.257C648.194,13.548 581.14,0.004 512,0C442.896,0 375.845,13.54 312.711,40.243C251.742,66.03 196.99,102.942 149.976,149.953C102.962,196.964 66.047,251.714 40.256,312.681C13.548,375.814 0.004,442.865 0,511.97C-0.004,581.079 13.533,648.135 40.234,711.274C66.019,772.247 102.93,827.002 149.941,874.017C196.952,921.035 251.703,957.952 312.673,983.744C375.809,1010.45 442.863,1024 511.996,1024L512.005,1024C581.109,1024 648.158,1010.46 711.293,983.758C772.262,957.971 827.013,921.059 874.026,874.049C921.039,827.039 957.955,772.289 983.746,711.321C1010.45,648.187 1024,581.135 1024,512.031C1024,442.921 1010.47,375.866 983.766,312.727ZM512.004,976.328L511.974,976.328C387.948,976.321 271.347,928.015 183.651,840.309C95.957,752.604 47.665,635.999 47.672,511.973C47.687,255.957 255.984,47.673 512.028,47.673C636.054,47.68 752.654,95.985 840.348,183.69C928.043,271.396 976.334,388.001 976.327,512.027C976.313,768.043 768.018,976.328 512.004,976.328Z" style="fill:white;fill-rule:nonzero;"/>
    </g>
    <g id="Twitter">
        <path id="Twitter_1_" d="M742.988,348.513C742.988,348.513 795.669,304.175 794,284.389C794,284.389 733.215,311.087 719.865,312.279C719.865,312.279 715.638,308.026 708.719,302.434C706.412,300.57 703.807,298.557 700.957,296.504C695.68,292.651 690.124,289.34 684.355,286.535C681.471,285.133 678.535,283.856 675.558,282.695C656.179,274.203 634.948,272.123 614.108,274.403C611.13,274.729 608.162,275.144 605.207,275.641C570.642,281.052 541.082,302.029 522.48,330.63C520.81,333.239 519.262,335.917 517.851,338.663C515.033,344.155 512.762,349.919 511.165,355.932C510.538,358.152 509.852,360.737 509.205,363.497C508.557,366.257 507.946,369.192 507.469,372.112C505.562,383.793 507.469,421.695 507.469,421.695C507.469,421.695 353.716,426.463 255.027,298.692C255.027,298.692 206.399,390.706 290.307,455.068C290.307,455.068 273.243,462.696 241.012,443.626C241.012,443.626 224.992,513.708 328.924,561.86L278.39,561.86C278.39,561.86 296.03,639.571 389.952,646.722C389.952,646.722 345.614,706.316 216.889,697.257C216.889,697.257 333.029,778.012 482.655,740.533C485.326,739.863 488.009,739.156 490.702,738.411C514.384,731.106 538.222,722.525 559.873,711.017C561.762,710.038 563.652,709.035 565.544,708.009C571.221,704.937 576.921,701.666 582.643,698.193C582.643,698.193 739.963,612.952 752.834,392.704C752.834,392.704 785.897,373.303 807.111,336.117C807.111,336.118 747.517,349.943 742.988,348.513Z" style="fill:white;fill-rule:nonzero;"/>
    </g>
</svg>
